<?xml version="1.0" standalone="no"?>
<!DOCTYPE svg PUBLIC "-//W3C//DTD SVG 20010904//EN"
 "http://www.w3.org/TR/2001/REC-SVG-20010904/DTD/svg10.dtd">
<svg version="1.0" xmlns="http://www.w3.org/2000/svg"
 width="141.000000pt" height="27.000000pt" viewBox="0 0 141.000000 27.000000"
 preserveAspectRatio="xMidYMid meet">

<g transform="translate(0.000000,27.000000) scale(0.100000,-0.100000)"
fill="#000000" stroke="none">
<path d="M61 185 c-60 -106 -60 -111 -1 -114 45 -2 50 1 63 26 8 15 12 36 8
46 -5 15 -9 13 -24 -13 -11 -18 -26 -30 -39 -30 -19 0 -19 1 5 42 13 24 30 54
37 67 12 23 13 22 50 -40 39 -68 41 -79 9 -79 -10 0 -19 -5 -19 -10 0 -7 22
-10 57 -8 l57 3 43 72 c59 100 59 107 1 111 -40 3 -47 0 -42 -12 3 -9 15 -16
25 -16 25 0 24 -5 -15 -74 l-33 -58 -37 60 c-42 69 -42 72 -18 72 11 0 24 -11
30 -25 13 -27 32 -34 32 -10 0 8 -5 26 -12 40 -10 23 -17 25 -73 25 l-61 0
-43 -75z"/>
</g>
</svg>
